<svg id="Layer_1" data-name="Layer 1" xmlns="http://www.w3.org/2000/svg" viewBox="0 0 807 811.16"><defs><style>.cls-1{fill:#d4f7ff;stroke:#c0272d;}.cls-1,.cls-2{stroke-miterlimit:10;stroke-width:3px;}.cls-2{fill:#fff;stroke:#006837;}.cls-3{fill:red;}.cls-4{fill:#f05a24;}.cls-5{fill:#e856e1;}.cls-6{fill:#662d90;}.cls-7{fill:#faaf3b;}.cls-8{fill:#ff008c;}.cls-9{fill:#1b1464;}.cls-10{fill:#0071bb;}</style></defs><title>circular</title><circle class="cls-1" cx="403.5" cy="403.5" r="402"/><circle class="cls-2" cx="457.5" cy="394.5" r="275"/><path class="cls-3" d="M1026.38,1388.41A334.13,334.13,0,0,1,808.24,1357c-12-6.26-22.6,11.86-10.6,18.13a355.46,355.46,0,0,0,178.14,40.28,365.84,365.84,0,0,0,56.18-6.7c5.57-1.1,8.76-7.74,7.34-12.92-1.6-5.81-7.34-8.43-12.92-7.33Z" transform="translate(-498 -671)"/><path class="cls-4" d="M708.38,836.35c39.4-43.38,89.61-76.3,145.54-94a346.47,346.47,0,0,1,50.36-11.84c5.6-.89,8.71-7.88,7.33-12.91-1.64-6-7.29-8.23-12.92-7.34C837.05,720,779,746.54,730.77,786a347.48,347.48,0,0,0-37.23,35.46c-9.07,10,5.74,24.88,14.84,14.85Z" transform="translate(-498 -671)"/><path class="cls-5" d="M724.05,1155.84a252,252,0,0,1-9.76-147.24c1.48-6.26-8.16-8.93-9.64-2.66a261.51,261.51,0,0,0,9.76,152.56c2.26,6,11.93,3.37,9.64-2.66Z" transform="translate(-498 -671)"/><path class="cls-6" d="M1108.06,870.91a251.45,251.45,0,0,1,93,160.43c.93,6.35,10.57,3.65,9.64-2.65a259.45,259.45,0,0,0-95.58-164.85c-5-3.94-12.12,3.09-7.07,7.07Z" transform="translate(-498 -671)"/><circle class="cls-7" cx="669.5" cy="188.5" r="17.5"/><circle class="cls-8" cx="262.5" cy="160.5" r="27.5"/><rect class="cls-6" x="554" y="1014" width="55" height="55" rx="12" ry="12" transform="translate(408.77 -777.13) rotate(45)"/><circle class="cls-9" cx="732.5" cy="623.5" r="40.5"/><rect class="cls-10" x="777" y="1444" width="36" height="36" rx="7.85" ry="7.85" transform="translate(-119.68 -820.16) rotate(14.04)"/></svg>