<svg id="Layer_1" data-name="Layer 1" xmlns="http://www.w3.org/2000/svg" viewBox="0 0 208.51 249.39"><defs><style>.cls-1{fill:#fff200;}</style></defs><title>MAIN PROFILE 2</title><g id="Layer_1-2" data-name="Layer 1"><path class="cls-1" d="M288.43,238.93a82.27,82.27,0,0,1-1.6-45.4,3.6,3.6,0,0,0-6.61-2.6c-5.71,9.57-13.91,22.57-19.17,24.86a1.93,1.93,0,0,1-1.88.09c-3.3-1.71-6.76-11.24-10.28-28.31a3.6,3.6,0,0,0-7.06.08c-4,21.85-7.62,27.66-10,28.68-3.34,1.46-10.91-6.67-22.54-24.14a3.58,3.58,0,0,0-4.23-1.37v0l-.09,0-.1,0v0a3.6,3.6,0,0,0-1.88,4c4.89,20.42,5.68,31.5,2.34,33-2.35,1-9.09-.27-27.79-12.23a3.6,3.6,0,0,0-4.87,5.12c10.11,14.2,14.73,23.23,13.74,26.81-.11.4-.32.86-1.36,1.31-5.25,2.29-20.35-.55-31.25-2.88a3.6,3.6,0,0,0-2.6,6.61,79.83,79.83,0,0,1,25.22,21.61c.68.87,1.32,1.74,1.93,2.59a86.75,86.75,0,0,1,111.42-34C289.33,241.63,288.88,240.32,288.43,238.93Z" transform="translate(-134.14 -161.8)"/><circle class="cls-1" cx="64.74" cy="15.07" r="10.88"/><circle class="cls-1" cx="27.88" cy="45.48" r="9.07"/><circle class="cls-1" cx="111.42" cy="9.07" r="9.07"/><circle class="cls-1" cx="6.12" cy="83.15" r="6.11"/><circle class="cls-1" cx="154.35" cy="18.56" r="6.11"/></g><path class="cls-1" d="M288.43,238.93a89.81,89.81,0,1,0,54.22,82.45A89.15,89.15,0,0,0,288.43,238.93ZM252.84,408.19a86.8,86.8,0,1,1,86.81-86.81A86.9,86.9,0,0,1,252.84,408.19Z" transform="translate(-134.14 -161.8)"/><path d="M304.6,315.81c0,.14-.16.29-.27.15a61.42,61.42,0,0,0-4.8-5.52c-.15-.14-.39-.47-.59-.68a11,11,0,0,1,.7,1.24,24.8,24.8,0,0,1,1.49,2.9c1.59,3.63,2.4,7.62,1.31,11.5,0,.14-.28.16-.31,0a17.29,17.29,0,0,0-2.09-5.82,0,0,0,0,1,0-.07l-.94-2.17a31.53,31.53,0,0,1,.4,10.83,33.88,33.88,0,0,1-1.36,5.86c-.61,1.88-1.45,3.89-1.1,5.87a4.82,4.82,0,0,1,.77.47c2.8,2.13,3,6.45,2.85,9.65-.11,1.81-.27,4-1.25,5.62s-3,2.54-4.46,3.56c-1.88,1.28-5.83,4.49-7.83,2.2a16.64,16.64,0,0,1-1.93,3.16c-6,7.57-17.54,16.78-30.61,17.79H251.2c-13.07-1-24.65-10.22-30.6-17.79a16.72,16.72,0,0,1-1.74-2.73c-2.09,1.38-5.6-1.44-7.33-2.63-1.49-1-3.49-2-4.47-3.56s-1.14-3.81-1.25-5.62c-.19-3.15.05-7.39,2.74-9.55,0,0,0-.07.06-.09l.14-.08v-.6a0,0,0,0,1,0-.05c1.14-6.79-2.29-13.45-1.69-20.25a15,15,0,0,0-.82,4c0,.17-.28.23-.31,0-1-5.73-1.82-12.25,1.17-17.5a9.47,9.47,0,0,0-2.4,4.48c0,.2-.33.14-.33,0-.12-8.95,2.85-20.45,12.79-23h.06v-.6a12.7,12.7,0,0,0-8.54,3.8c-.13.13-.36,0-.25-.19,5.5-7.75,13.85-15.25,24-13.94a7.91,7.91,0,0,0-8.27-1.47c-.27.11-.37-.28-.18-.42A15,15,0,0,1,239.44,273l.17-.6s0,0-.05,0c-.4-1.67-.72-3.46.4-4.94a24.29,24.29,0,0,1,2.49-2.26,11.89,11.89,0,0,0,2.22-3.1c.11-.23.44-.07.38.16-.69,2.91-1.28,6.09.33,8.74,0-2.37,2-4,4.06-5,1.51-.67,3.06-1.21,4.51-2a31.19,31.19,0,0,0,4.74-3.31c.14-.11.39,0,.27.21-2.43,3.3-4.86,6.62-7.33,9.89l.83.21s0,0,0,0c6.77-8.21,19.26-1,26.88-7.45.22-.19.63.07.43.33-3.27,4.39-6.82,9.35-11.88,11.79l.14.06a.1.1,0,0,1,.09-.08c5.84-1,12.34-1,17.75,1.71a12,12,0,0,1,4.89,3.91c.14.22-.14.53-.37.37a10.23,10.23,0,0,0-12.24.45c4.25,1.11,8.49,2.4,11.9,5.29s5.88,6.93,8.21,10.77c.1.16-.11.29-.24.19a17.13,17.13,0,0,0-5.81-3s0,0,0-.05l-.44.13A35,35,0,0,1,304.6,315.81Z" transform="translate(-134.14 -161.8)"/></svg>