<?xml version="1.0" encoding="utf-8"?>
<!-- Generator: Adobe Illustrator 22.1.0, SVG Export Plug-In . SVG Version: 6.00 Build 0)  -->
<svg version="1.1" id="Layer_1" xmlns="http://www.w3.org/2000/svg" xmlns:xlink="http://www.w3.org/1999/xlink" x="0px" y="0px"
	 viewBox="0 0 2000 2000" style="enable-background:new 0 0 2000 2000;" xml:space="preserve">
<style type="text/css">
	.st0{fill:#D4F7FF;stroke:#C0272D;stroke-width:3;stroke-miterlimit:10;}
	.st1{fill:#FFFFFF;stroke:#006837;stroke-width:3;stroke-miterlimit:10;}
	.st2{fill:#FF0000;}
	.st3{fill:#F05A24;}
	.st4{fill:#E856E1;}
	.st5{fill:#662D90;}
	.st6{clip-path:url(#SVGID_2_);}
	.st7{clip-path:url(#SVGID_4_);fill:#FFFFFF;}
	.st8{clip-path:url(#SVGID_4_);fill:#F9ED32;}
	.st9{clip-path:url(#SVGID_4_);fill:#231F20;}
	.st10{clip-path:url(#SVGID_4_);fill:#48C7EE;}
	.st11{fill:#FAAF3B;}
	.st12{fill:#FF008C;}
	.st13{fill:#1B1464;}
	.st14{fill:#0071BB;}
</style>
<circle class="st0" cx="901.5" cy="1074.5" r="402"/>
<circle class="st1" cx="955.5" cy="1065.5" r="275"/>
<g>
	<g>
		<path class="st2" d="M1026.4,1388.4c-73.8,14.5-151.5,3.4-218.1-31.5c-12-6.3-22.6,11.9-10.6,18.1
			c54.7,28.6,116.4,42.7,178.1,40.3c18.9-0.7,37.7-3.1,56.2-6.7c5.6-1.1,8.8-7.7,7.3-12.9C1037.7,1389.9,1032,1387.3,1026.4,1388.4
			L1026.4,1388.4z"/>
	</g>
</g>
<g>
	<g>
		<path class="st3" d="M708.4,836.3c39.4-43.4,89.6-76.3,145.5-94c16.5-5.2,33.3-9.1,50.4-11.8c5.6-0.9,8.7-7.9,7.3-12.9
			c-1.6-6-7.3-8.2-12.9-7.3C837,720,779,746.5,730.8,786c-13.3,10.9-25.7,22.8-37.2,35.5C684.5,831.5,699.3,846.4,708.4,836.3
			L708.4,836.3z"/>
	</g>
</g>
<g>
	<g>
		<path class="st4" d="M724.1,1155.8c-17.8-47-21.3-98.3-9.8-147.2c1.5-6.3-8.2-8.9-9.6-2.7c-11.9,50.6-8.7,104,9.8,152.6
			C716.7,1164.5,726.3,1161.9,724.1,1155.8L724.1,1155.8z"/>
	</g>
</g>
<g>
	<g>
		<path class="st5" d="M1108.1,870.9c50.3,39.7,83.6,97,93,160.4c0.9,6.3,10.6,3.6,9.6-2.7c-9.6-64.8-44.2-124.2-95.6-164.8
			C1110.1,859.9,1103,866.9,1108.1,870.9L1108.1,870.9z"/>
	</g>
</g>
<g>
	<g>
		<defs>
			<rect id="SVGID_1_" x="678" y="778.5" width="566.9" height="566.9"/>
		</defs>
		<clipPath id="SVGID_2_">
			<use xlink:href="#SVGID_1_"  style="overflow:visible;"/>
		</clipPath>
		<g class="st6">
			<defs>
				<rect id="SVGID_3_" x="678" y="778.5" width="566.9" height="566.9"/>
			</defs>
			<clipPath id="SVGID_4_">
				<use xlink:href="#SVGID_3_"  style="overflow:visible;"/>
			</clipPath>
			<path class="st7" d="M1176.3,1064.5c0,122.4-99.2,221.6-221.6,221.6s-221.6-99.2-221.6-221.6s99.2-221.6,221.6-221.6
				S1176.3,942.1,1176.3,1064.5"/>
			<path class="st8" d="M775.1,1063.5c0-98.7,80-178.7,178.7-178.7s178.7,80,178.7,178.7s-80,178.7-178.7,178.7
				S775.1,1162.2,775.1,1063.5"/>
			<path class="st9" d="M915,1018.3c2.6-2.5,5.4-4.9,8.2-7.2c-2.5,2-5.1,3.9-7.6,5.9c7-5.4,14.6-9.8,22.7-13.4c-3,1.3-6,2.5-9,3.8
				c8.7-3.6,17.7-6.1,27-7.3c-3.3,0.4-6.6,0.9-10,1.3c8.5-1,16.9-1,25.4,0c-3.3-0.4-6.6-0.9-10-1.3c9.3,1.2,18.2,3.7,26.9,7.2
				c-3-1.3-6-2.5-9-3.8c8,3.4,15.5,7.8,22.4,13c-2.5-2-5.1-3.9-7.6-5.9c6.7,5.2,12.6,11.1,17.9,17.8c-2-2.5-3.9-5.1-5.9-7.6
				c5.4,7,9.9,14.6,13.4,22.7c-1.3-3-2.5-6-3.8-9c3.6,8.6,6.1,17.5,7.3,26.8c-0.4-3.3-0.9-6.6-1.3-10c1.1,9,1.1,18-0.1,27
				c0.4-3.3,0.9-6.6,1.3-10c-1.3,8.8-3.7,17.4-7.1,25.6c1.3-3,2.5-6,3.8-9c-3.4,8-7.8,15.5-13,22.4c2-2.5,3.9-5.1,5.9-7.6
				c-5.2,6.7-11.1,12.6-17.8,17.9c2.5-2,5.1-3.9,7.6-5.9c-7,5.4-14.6,9.9-22.7,13.4c3-1.3,6-2.5,9-3.8c-8.6,3.6-17.5,6.1-26.8,7.3
				l10-1.3c-9,1.1-18,1.1-27-0.1c3.3,0.4,6.6,0.9,10,1.3c-5.6-0.8-11-2-16.4-3.7c-18.8-5.7-41.7,6.8-46.1,26.2
				c-4.6,20.3,6.1,40,26.2,46.1c35.7,10.9,74.6,6.3,107.3-11.4c32-17.3,55.9-48,66.2-82.7c10.6-35.6,5.6-74.8-12.4-107.1
				c-17.9-32-49.3-56.3-84.7-65.8c-47.4-12.7-98.1,1.1-133.4,34.9c-14.2,13.6-14.7,39.5,0,53C877.2,1032.3,899.8,1032.8,915,1018.3"
				/>
			<path class="st10" d="M880.5,989.1c3.7-3.6,7.6-7,11.7-10.2c-2.5,2-5.1,3.9-7.6,5.9c9.8-7.6,20.5-13.8,31.9-18.7
				c-3,1.3-6,2.5-9,3.8c11.5-4.8,23.5-8.1,35.8-9.9c-3.3,0.4-6.6,0.9-10,1.3c12.6-1.7,25.3-1.7,37.9-0.1c-3.3-0.4-6.6-0.9-10-1.3
				c12.8,1.8,25.3,5.2,37.3,10.2c-3-1.3-6-2.5-9-3.8c11,4.7,21.3,10.7,30.9,18c-2.5-2-5.1-3.9-7.6-5.9c9.6,7.4,18.1,16,25.6,25.5
				c-2-2.5-3.9-5.1-5.9-7.6c7.6,9.9,13.9,20.6,18.8,32.1c-1.3-3-2.5-6-3.8-9c4.8,11.6,8.1,23.6,9.9,36c-0.4-3.3-0.9-6.6-1.3-10
				c1.7,12.7,1.7,25.4,0,38.1c0.4-3.3,0.9-6.6,1.3-10c-1.8,12.6-5.2,24.9-10.1,36.7c1.3-3,2.5-6,3.8-9c-4.7,11-10.7,21.3-18,30.9
				c2-2.5,3.9-5.1,5.9-7.6c-7.4,9.6-16,18.1-25.5,25.6c2.5-2,5.1-3.9,7.6-5.9c-9.9,7.6-20.6,13.9-32.1,18.8c3-1.3,6-2.5,9-3.8
				c-11.6,4.8-23.6,8.1-36,9.9c3.3-0.4,6.6-0.9,10-1.3c-12.7,1.7-25.4,1.7-38.1,0c3.3,0.4,6.6,0.9,10,1.3
				c-7.9-1.1-15.7-2.9-23.4-5.2c-18.8-5.8-41.7,6.8-46.1,26.2c-4.6,20.3,6.1,40,26.2,46.1c45.9,14.1,96.1,8.4,138.3-14.2
				c41.9-22.4,73.3-62.5,86.5-108c13.3-45.9,7-96.3-16.3-137.9c-23.3-41.7-64.2-73-110.3-85.2c-60.9-16-126.2,1.7-171.4,45.2
				c-14.2,13.6-14.7,39.5,0,53C842.7,1003.1,865.3,1003.7,880.5,989.1"/>
			<path class="st9" d="M936,1248.9c-6.6,21.1-29,32.8-50.1,26.2c-21.1-6.6-32.8-29-26.2-50.1c6.6-21.1,29-32.8,50.1-26.2
				C930.9,1205.4,942.6,1227.8,936,1248.9"/>
		</g>
	</g>
</g>
<circle class="st11" cx="1167.5" cy="859.5" r="17.5"/>
<circle class="st12" cx="760.5" cy="831.5" r="27.5"/>
<path class="st5" d="M573,1071.9l-21.9-21.9c-4.7-4.7-4.7-12.3,0-17l21.9-21.9c4.7-4.7,12.3-4.7,17,0l21.9,21.9
	c4.7,4.7,4.7,12.3,0,17l-21.9,21.9C585.3,1076.6,577.7,1076.6,573,1071.9z"/>
<circle class="st13" cx="1230.5" cy="1294.5" r="40.5"/>
<path class="st14" d="M800.5,1481.9l-19.7-4.9c-4.2-1-6.8-5.3-5.7-9.5l4.9-19.7c1-4.2,5.3-6.8,9.5-5.7l19.7,4.9
	c4.2,1,6.8,5.3,5.7,9.5l-4.9,19.7C809,1480.4,804.7,1483,800.5,1481.9z"/>
</svg>
