<svg xmlns="http://www.w3.org/2000/svg" xmlns:xlink="http://www.w3.org/1999/xlink" width="1080" height="1920" viewBox="0 0 1080 1920">
  <defs>
    <clipPath id="clip-Web_1920_1">
      <rect width="1080" height="1920"/>
    </clipPath>
  </defs>
  <g id="Web_1920_1" data-name="Web 1920 – 1" clip-path="url(#clip-Web_1920_1)">
    <rect width="1080" height="1920" fill="#fff"/>
    <g id="Path_3" data-name="Path 3" transform="translate(18 21)" fill="#779b14">
      <path d="M 1041.5 1876.5 L 2.5 1876.5 L 2.5 2.5 L 1041.5 2.5 L 1041.5 1876.5 Z" stroke="none"/>
      <path d="M 5 5 L 5 1874 L 1039 1874 L 1039 5 L 5 5 M 0 0 L 1044 0 L 1044 1879 L 0 1879 L 0 0 Z" stroke="none"/>
    </g>
    <g id="Path_5" data-name="Path 5" transform="translate(239 203)" fill="#eb9034">
      <path d="M 90 1314.5 C 83.99433135986328 1314.5 77.99299621582031 1313.89501953125 72.16249847412109 1312.702026367188 C 66.48100280761719 1311.539306640625 60.89250183105469 1309.8046875 55.55216598510742 1307.545776367188 C 50.30849838256836 1305.328002929688 45.25099945068359 1302.582885742188 40.51983261108398 1299.386474609375 C 35.83333206176758 1296.220336914063 31.42616653442383 1292.584106445313 27.42099952697754 1288.578979492188 C 23.41583251953125 1284.573852539063 19.77966690063477 1280.166625976563 16.61350059509277 1275.480224609375 C 13.4171667098999 1270.7490234375 10.67199993133545 1265.691528320313 8.454166412353516 1260.447875976563 C 6.195333480834961 1255.107543945313 4.460666656494141 1249.51904296875 3.29800009727478 1243.837524414063 C 2.105000019073486 1238.006958007813 1.5 1232.005615234375 1.5 1226 L 1.5 301 C 1.5 280.6783447265625 3.547166585922241 260.3698425292969 7.584833145141602 240.638671875 C 11.51966667175293 221.4098358154297 17.39083290100098 202.4956665039063 25.03566741943359 184.4214935302734 C 32.54166793823242 166.6753387451172 41.8321647644043 149.558837890625 52.64899826049805 133.5478363037109 C 63.36333465576172 117.6883316040039 75.66816711425781 102.7748336791992 89.22149658203125 89.22149658203125 C 102.7748336791992 75.66816711425781 117.6883316040039 63.36333465576172 133.5478363037109 52.64899826049805 C 149.558837890625 41.8321647644043 166.6753387451172 32.54166793823242 184.4214935302734 25.03566741943359 C 202.4956665039063 17.39083290100098 221.4098358154297 11.51966667175293 240.638671875 7.584833145141602 C 260.3698425292969 3.547166585922241 280.6783447265625 1.5 301 1.5 C 321.3894958496094 1.5 341.7658386230469 3.553999900817871 361.5628356933594 7.605166435241699 C 380.8559875488281 11.55300045013428 399.8333435058594 17.44400024414063 417.9676818847656 25.11416625976563 C 435.7731628417969 32.64533233642578 452.9468383789063 41.96683502197266 469.0113220214844 52.81983184814453 C 484.9236755371094 63.56999969482422 499.8869934082031 75.91583251953125 513.4856567382813 89.51433563232422 C 527.0841674804688 103.1129989624023 539.4299926757813 118.0763320922852 550.18017578125 133.9886627197266 C 561.0331420898438 150.0531616210938 570.3546752929688 167.2268371582031 577.8858032226563 185.0323333740234 C 585.5560302734375 203.1666717529297 591.447021484375 222.1439971923828 595.3948364257813 241.4371643066406 C 599.4459838867188 261.2341613769531 601.5 281.6105041503906 601.5 302 L 601.5 803 C 601.5 820.4483032226563 600.6115112304688 838.0444946289063 598.8591918945313 855.2996826171875 C 597.1321411132813 872.3048095703125 594.5243530273438 889.3920288085938 591.108154296875 906.086669921875 C 587.7361450195313 922.565185546875 583.4954833984375 939.0573120117188 578.504150390625 955.10498046875 C 573.5686645507813 970.9730224609375 567.7818603515625 986.7839965820313 561.3043212890625 1002.098327636719 C 554.8866577148438 1017.271484375 547.6400146484375 1032.314697265625 539.7655029296875 1046.810180664063 C 531.947021484375 1061.202880859375 523.3270263671875 1075.391967773438 514.1446533203125 1088.983520507813 C 505.0068359375 1102.50927734375 495.0996704101563 1115.7578125 484.6988220214844 1128.36083984375 C 474.3233337402344 1140.932983398438 463.2158203125 1153.154296875 451.6851806640625 1164.685180664063 C 440.1543273925781 1176.2158203125 427.9330139160156 1187.323364257813 415.36083984375 1197.698852539063 C 402.7578430175781 1208.099609375 389.5093383789063 1218.0068359375 375.9834899902344 1227.144653320313 C 362.3919982910156 1236.327026367188 348.2028198242188 1244.947021484375 333.8101806640625 1252.765502929688 C 319.3146667480469 1260.640014648438 304.2715148925781 1267.88671875 289.0983276367188 1274.304321289063 C 273.7839965820313 1280.781860351563 257.9729919433594 1286.568725585938 242.1049957275391 1291.504150390625 C 226.0573272705078 1296.495483398438 209.5651702880859 1300.736206054688 193.086669921875 1304.108154296875 C 176.3919982910156 1307.524291992188 159.3048400878906 1310.132202148438 142.2996673583984 1311.859130859375 C 125.0445022583008 1313.611450195313 107.4483337402344 1314.5 90 1314.5 Z" stroke="none"/>
      <path d="M 301 3 C 280.7791748046875 3 260.5718383789063 5.0369873046875 240.9395141601563 9.0543212890625 C 221.8074951171875 12.9693603515625 202.9888305664063 18.81103515625 185.0058288574219 26.4171142578125 C 167.3488464355469 33.8853759765625 150.3183288574219 43.1292724609375 134.3875122070313 53.8919677734375 C 118.607177734375 64.5528564453125 103.7680053710938 76.79638671875 90.28216552734375 90.2822265625 C 76.79632568359375 103.7679443359375 64.5528564453125 118.607177734375 53.89202880859375 134.387451171875 C 43.12933349609375 150.318359375 33.88531494140625 167.348876953125 26.41717529296875 185.005859375 C 18.81097412109375 202.9888916015625 12.9693603515625 221.8074951171875 9.0543212890625 240.939453125 C 5.0369873046875 260.57177734375 3 280.7791748046875 3 301 L 3 1226 C 3 1231.90478515625 3.59466552734375 1237.805053710938 4.76751708984375 1243.53662109375 C 5.91033935546875 1249.121215820313 7.615478515625 1254.614379882813 9.835693359375 1259.86328125 C 12.01580810546875 1265.017822265625 14.71435546875 1269.989501953125 17.85650634765625 1274.640380859375 C 20.96917724609375 1279.247802734375 24.54400634765625 1283.580444335938 28.481689453125 1287.518188476563 C 32.4193115234375 1291.4560546875 36.75213623046875 1295.030883789063 41.3594970703125 1298.1435546875 C 46.01031494140625 1301.285522460938 50.982177734375 1303.984130859375 56.136474609375 1306.164306640625 C 61.38568115234375 1308.384521484375 66.87884521484375 1310.089721679688 72.46331787109375 1311.232543945313 C 78.19500732421875 1312.4052734375 84.09515380859375 1313 90 1313 C 107.3978271484375 1313 124.9431762695313 1312.114013671875 142.1481628417969 1310.366821289063 C 159.1033325195313 1308.644775390625 176.1403198242188 1306.044677734375 192.7860107421875 1302.638549804688 C 209.2158203125 1299.276489257813 225.6593322753906 1295.048461914063 241.6594848632813 1290.07177734375 C 257.4806518554688 1285.151000976563 273.2448425292969 1279.381225585938 288.5140075683594 1272.9228515625 C 303.642333984375 1266.524169921875 318.6413269042969 1259.298828125 333.0941772460938 1251.447509765625 C 347.4445190429688 1243.651977539063 361.5919799804688 1235.05712890625 375.1436767578125 1225.90185546875 C 388.6301879882813 1216.79052734375 401.83984375 1206.912475585938 414.406005859375 1196.541870117188 C 426.941650390625 1186.196655273438 439.1273193359375 1175.121704101563 450.62451171875 1163.62451171875 C 462.1216735839844 1152.127319335938 473.1966552734375 1139.941650390625 483.5418395996094 1127.406005859375 C 493.9125061035156 1114.83984375 503.7904968261719 1101.630126953125 512.90185546875 1088.143676757813 C 522.0571899414063 1074.592041015625 530.6519775390625 1060.444458007813 538.447509765625 1046.09423828125 C 546.298828125 1031.641357421875 553.524169921875 1016.642333984375 559.9228515625 1001.514038085938 C 566.3811645507813 986.244873046875 572.1510009765625 970.4806518554688 577.0718383789063 954.6594848632813 C 582.0485229492188 938.6593017578125 586.2764892578125 922.2158203125 589.6384887695313 905.7860107421875 C 593.044677734375 889.1403198242188 595.6448364257813 872.1033325195313 597.3668212890625 855.148193359375 C 599.114013671875 837.9431762695313 600 820.3978271484375 600 803 L 600 302 C 600 281.7113037109375 597.9561767578125 261.4361572265625 593.9253540039063 241.73779296875 C 589.9971923828125 222.5418701171875 584.135986328125 203.6597900390625 576.5043334960938 185.61669921875 C 569.010986328125 167.900390625 559.7360229492188 150.8126220703125 548.9373168945313 134.828369140625 C 538.240478515625 118.9951171875 525.9559936523438 104.106201171875 512.4249877929688 90.574951171875 C 498.8938293457031 77.0439453125 484.0048217773438 64.759521484375 468.1716613769531 54.0626220703125 C 452.1873168945313 43.2640380859375 435.0996704101563 33.989013671875 417.3833312988281 26.4957275390625 C 399.3401489257813 18.864013671875 380.4581604003906 13.0028076171875 361.2621459960938 9.07470703125 C 341.5638427734375 5.0438232421875 321.2886657714844 3 301 3 M 301 0 C 467.7899780273438 0 603 135.2099609375 603 302 L 603 803 C 603 1086.322021484375 373.322021484375 1316 90 1316 C 40.2943115234375 1316 0 1275.705444335938 0 1226 L 0 301 C 0 134.7623291015625 134.7623291015625 0 301 0 Z" stroke="none"/>
    </g>
    <g id="Path_4" data-name="Path 4" transform="translate(239 203)" fill="#b000ff">
      <path d="M 513 1314.5 C 495.5516662597656 1314.5 477.9555053710938 1313.611450195313 460.7003479003906 1311.859130859375 C 443.6951599121094 1310.132202148438 426.6080017089844 1307.524291992188 409.913330078125 1304.108154296875 C 393.4348449707031 1300.736206054688 376.9426574707031 1296.495483398438 360.8949890136719 1291.504150390625 C 345.0270080566406 1286.568725585938 329.2160034179688 1280.781860351563 313.9016723632813 1274.304321289063 C 298.7284851074219 1267.88671875 283.6853332519531 1260.640014648438 269.1898193359375 1252.765502929688 C 254.7971649169922 1244.947021484375 240.6080017089844 1236.327026367188 227.0164947509766 1227.144653320313 C 213.4906616210938 1218.0068359375 200.2421722412109 1208.099609375 187.63916015625 1197.698852539063 C 175.0670013427734 1187.323364257813 162.8456726074219 1176.2158203125 151.3148345947266 1164.685180664063 C 139.7841644287109 1153.154296875 128.6766662597656 1140.932983398438 118.3011703491211 1128.36083984375 C 107.9003295898438 1115.7578125 97.9931640625 1102.50927734375 88.85533142089844 1088.983520507813 C 79.67299652099609 1075.391967773438 71.05300140380859 1061.202880859375 63.23450088500977 1046.810180664063 C 55.36000061035156 1032.314697265625 48.11333465576172 1017.271484375 41.6956672668457 1002.098327636719 C 35.21816635131836 986.7839965820313 29.43133354187012 970.9730224609375 24.4958324432373 955.10498046875 C 19.5044994354248 939.0573120117188 15.26383304595947 922.565185546875 11.89183330535889 906.086669921875 C 8.475666999816895 889.3920288085938 5.867833137512207 872.3048095703125 4.140833377838135 855.2996826171875 C 2.388499975204468 838.0444946289063 1.5 820.4483032226563 1.5 803 L 1.5 302 C 1.5 281.6105041503906 3.553999900817871 261.2341613769531 7.605166435241699 241.4371643066406 C 11.55300045013428 222.1439971923828 17.44400024414063 203.1666717529297 25.11416625976563 185.0323333740234 C 32.64533233642578 167.2268371582031 41.96683502197266 150.0531616210938 52.81983184814453 133.9886627197266 C 63.56999969482422 118.0763320922852 75.91583251953125 103.1129989624023 89.51433563232422 89.51433563232422 C 103.1129989624023 75.91583251953125 118.0763320922852 63.56999969482422 133.9886627197266 52.81983184814453 C 150.0531616210938 41.96683502197266 167.2268371582031 32.64533233642578 185.0323333740234 25.11416625976563 C 203.1666717529297 17.44400024414063 222.1439971923828 11.55300045013428 241.4371643066406 7.605166435241699 C 261.2341613769531 3.553999900817871 281.6105041503906 1.5 302 1.5 C 322.3216552734375 1.5 342.6301574707031 3.547166585922241 362.361328125 7.584833145141602 C 381.5901794433594 11.51966667175293 400.5043334960938 17.39083290100098 418.5784912109375 25.03566741943359 C 436.3246765136719 32.54166793823242 453.441162109375 41.8321647644043 469.4521789550781 52.64899826049805 C 485.3116760253906 63.36333465576172 500.2251586914063 75.66816711425781 513.7785034179688 89.22149658203125 C 527.3318481445313 102.7748336791992 539.6366577148438 117.6883316040039 550.3510131835938 133.5478363037109 C 561.1678466796875 149.558837890625 570.4583129882813 166.6753387451172 577.96435546875 184.4214935302734 C 585.6091918945313 202.4956665039063 591.4803466796875 221.4098358154297 595.4151611328125 240.638671875 C 599.4528198242188 260.3698425292969 601.5 280.6783447265625 601.5 301 L 601.5 1226 C 601.5 1232.005615234375 600.89501953125 1238.006958007813 599.7020263671875 1243.837524414063 C 598.539306640625 1249.51904296875 596.8046875 1255.107543945313 594.5458374023438 1260.447875976563 C 592.3280029296875 1265.691528320313 589.5828247070313 1270.7490234375 586.386474609375 1275.480224609375 C 583.2203369140625 1280.166625976563 579.5841674804688 1284.573852539063 575.5789794921875 1288.578979492188 C 571.5738525390625 1292.584106445313 567.1666870117188 1296.220336914063 562.4801635742188 1299.386474609375 C 557.7490234375 1302.582885742188 552.6915283203125 1305.328002929688 547.4478149414063 1307.545776367188 C 542.1074829101563 1309.8046875 536.5189819335938 1311.539306640625 530.8375244140625 1312.702026367188 C 525.0070190429688 1313.89501953125 519.0056762695313 1314.5 513 1314.5 Z" stroke="none"/>
      <path d="M 302 3 C 281.7113342285156 3 261.4361572265625 5.0438232421875 241.7378234863281 9.07470703125 C 222.5418395996094 13.0028076171875 203.6598205566406 18.864013671875 185.6166687011719 26.4957275390625 C 167.9003295898438 33.989013671875 150.8126525878906 43.2640380859375 134.8283386230469 54.0626220703125 C 118.9951782226563 64.759521484375 104.1061706542969 77.0439453125 90.57501220703125 90.574951171875 C 77.04400634765625 104.106201171875 64.759521484375 118.9951171875 54.06268310546875 134.828369140625 C 43.26397705078125 150.8126220703125 33.989013671875 167.900390625 26.49566650390625 185.61669921875 C 18.864013671875 203.6597900390625 13.0028076171875 222.5418701171875 9.07464599609375 241.73779296875 C 5.0438232421875 261.4361572265625 3 281.7113037109375 3 302 L 3 803 C 3 820.3978271484375 3.885986328125 837.9431762695313 5.6331787109375 855.148193359375 C 7.35516357421875 872.1033325195313 9.955322265625 889.1403198242188 13.36151123046875 905.7860107421875 C 16.7235107421875 922.2158203125 20.95147705078125 938.6593017578125 25.92816162109375 954.6594848632813 C 30.8489990234375 970.4806518554688 36.61883544921875 986.244873046875 43.0771484375 1001.514038085938 C 49.475830078125 1016.642333984375 56.701171875 1031.641357421875 64.552490234375 1046.09423828125 C 72.3480224609375 1060.444458007813 80.94281005859375 1074.592041015625 90.09814453125 1088.143676757813 C 99.20950317382813 1101.630126953125 109.0874938964844 1114.83984375 119.4581604003906 1127.406005859375 C 129.8033447265625 1139.941650390625 140.8783264160156 1152.127319335938 152.37548828125 1163.62451171875 C 163.8726806640625 1175.121704101563 176.0583190917969 1186.196655273438 188.593994140625 1196.541870117188 C 201.16015625 1206.912475585938 214.3698425292969 1216.79052734375 227.8563232421875 1225.90185546875 C 241.4079895019531 1235.05712890625 255.5555114746094 1243.651977539063 269.9058227539063 1251.447509765625 C 284.3586730957031 1259.298828125 299.357666015625 1266.524169921875 314.4859924316406 1272.9228515625 C 329.7551574707031 1279.381225585938 345.5193481445313 1285.151000976563 361.3405151367188 1290.07177734375 C 377.3406677246094 1295.048461914063 393.7841796875 1299.276489257813 410.2139892578125 1302.638549804688 C 426.8596801757813 1306.044677734375 443.8966674804688 1308.644775390625 460.8518371582031 1310.366821289063 C 478.0568237304688 1312.114013671875 495.6021728515625 1313 513 1313 C 518.9048461914063 1313 524.8049926757813 1312.4052734375 530.5366821289063 1311.232543945313 C 536.1211547851563 1310.089721679688 541.6143188476563 1308.384521484375 546.863525390625 1306.164306640625 C 552.017822265625 1303.984130859375 556.9896850585938 1301.285522460938 561.6405029296875 1298.1435546875 C 566.247802734375 1295.030883789063 570.5806884765625 1291.4560546875 574.518310546875 1287.518188476563 C 578.4559936523438 1283.580444335938 582.0308227539063 1279.247802734375 585.1434936523438 1274.640380859375 C 588.28564453125 1269.989501953125 590.9841918945313 1265.017822265625 593.164306640625 1259.86328125 C 595.384521484375 1254.614379882813 597.0896606445313 1249.121215820313 598.2324829101563 1243.53662109375 C 599.4053344726563 1237.805053710938 600 1231.90478515625 600 1226 L 600 301 C 600 280.7791748046875 597.9630126953125 260.57177734375 593.9456787109375 240.939453125 C 590.0306396484375 221.8074951171875 584.1890258789063 202.9888916015625 576.5828247070313 185.005859375 C 569.1146850585938 167.348876953125 559.8706665039063 150.318359375 549.1080322265625 134.387451171875 C 538.4471435546875 118.607177734375 526.2036743164063 103.7679443359375 512.7178344726563 90.2822265625 C 499.2319946289063 76.79638671875 484.392822265625 64.5528564453125 468.6124877929688 53.8919677734375 C 452.6816711425781 43.1292724609375 435.6511840820313 33.8853759765625 417.9941711425781 26.4171142578125 C 400.0111694335938 18.81103515625 381.1925048828125 12.9693603515625 362.0604858398438 9.0543212890625 C 342.4281616210938 5.0369873046875 322.2208251953125 3 302 3 M 302 0 C 468.2376708984375 0 603 134.7623291015625 603 301 L 603 1226 C 603 1275.705444335938 562.7056884765625 1316 513 1316 C 229.6780090332031 1316 0 1086.322021484375 0 803 L 0 302 C 0 135.2099609375 135.2099914550781 0 302 0 Z" stroke="none" fill="#fff"/>
    </g>
    <g id="Rectangle_4" data-name="Rectangle 4" transform="translate(262 843)" fill="#fff" stroke="#000" stroke-width="3">
      <rect width="556" height="127" rx="63.5" stroke="none"/>
      <rect x="1.5" y="1.5" width="553" height="124" rx="62" fill="none"/>
    </g>
    <g id="Rectangle_5" data-name="Rectangle 5" transform="translate(262 1017)" fill="#fff" stroke="#000" stroke-width="3">
      <rect width="556" height="127" rx="63.5" stroke="none"/>
      <rect x="1.5" y="1.5" width="553" height="124" rx="62" fill="none"/>
    </g>
    <text id="Username" transform="translate(385 925)" fill="#707070" font-size="62" font-family="ArialRoundedMTBold, Arial Rounded MT"><tspan x="0" y="0">Username</tspan></text>
    <text id="Password_" data-name="Password
" transform="translate(385 1099)" fill="#707070" font-size="62" font-family="ArialRoundedMTBold, Arial Rounded MT"><tspan x="0" y="0">Password</tspan><tspan x="0" y="72"></tspan></text>
    <g id="logo_5" data-name="logo 5" transform="translate(249 213)">
      <circle id="Ellipse_6" data-name="Ellipse 6" cx="291.07" cy="291.07" r="291.07" transform="translate(0 0)" fill="#fff"/>
      <circle id="Ellipse_7" data-name="Ellipse 7" cx="234.7" cy="234.7" r="234.7" transform="translate(55.056 55.122)" fill="#f9ed32"/>
      <path id="Path_1" data-name="Path 1" d="M257.046,268.822c3.455-3.31,7.041-6.437,10.8-9.419l-9.971,7.711a141.142,141.142,0,0,1,29.768-17.564l-11.823,4.966a140.481,140.481,0,0,1,35.469-9.656l-13.137,1.76a140.13,140.13,0,0,1,33.341,0l-13.137-1.76a141.377,141.377,0,0,1,35.325,9.485l-11.823-4.966a138.962,138.962,0,0,1,29.479,17.091l-9.971-7.7a139.448,139.448,0,0,1,23.541,23.357l-7.711-9.971a140.377,140.377,0,0,1,17.629,29.781l-4.966-11.823a139.511,139.511,0,0,1,9.655,35.141l-1.76-13.137a138.656,138.656,0,0,1-.144,35.469l1.76-13.137a141.25,141.25,0,0,1-9.275,33.656l4.966-11.823a138.96,138.96,0,0,1-17.078,29.387l7.711-9.971a140.007,140.007,0,0,1-23.37,23.541l9.971-7.711a140.056,140.056,0,0,1-29.755,17.616l11.823-4.966a139.459,139.459,0,0,1-35.154,9.655l13.137-1.76a138.658,138.658,0,0,1-35.469-.145l13.137,1.76a146.838,146.838,0,0,1-21.492-4.821c-24.645-7.527-54.806,8.946-60.6,34.405-6.069,26.628,8.013,52.547,34.405,60.6,46.859,14.28,98.052,8.263,140.983-14.936,42.037-22.7,73.395-63.056,86.939-108.641,13.767-46.53,7.2-98.066-16.447-140.537-23.462-42.037-64.8-73.92-111.281-86.4-62.242-16.723-128.832,1.5-175.191,45.781-18.667,17.84-19.3,51.956,0,69.625,20.033,18.391,49.749,19.022,69.625,0Z" transform="translate(-18.142 -38.404)" fill="#231f20"/>
      <path id="Path_2" data-name="Path 2" d="M222.484,243.255q7.37-7.068,15.4-13.386l-9.971,7.7a195.318,195.318,0,0,1,41.932-24.618l-11.823,4.966A194.424,194.424,0,0,1,305.074,204.9l-13.137,1.76a192.781,192.781,0,0,1,49.814-.2l-13.137-1.76a196.017,196.017,0,0,1,48.974,13.373l-11.823-4.966a192.856,192.856,0,0,1,40.54,23.646l-9.971-7.7a192.927,192.927,0,0,1,33.656,33.5l-7.711-9.971a194,194,0,0,1,24.644,42.129l-4.966-11.823a192.907,192.907,0,0,1,12.94,47.292l-1.747-13.137a191.982,191.982,0,0,1,0,50.011l1.76-13.137A194.752,194.752,0,0,1,441.643,402.1l4.966-11.757a193.109,193.109,0,0,1-23.646,40.527l7.711-9.971a193,193,0,0,1-33.512,33.656l9.971-7.711A194,194,0,0,1,365,471.492l11.823-4.966a193.424,193.424,0,0,1-47.292,12.953l13.137-1.76a192.074,192.074,0,0,1-50.025,0l13.137,1.76a199.163,199.163,0,0,1-30.687-6.844c-24.644-7.567-54.819,8.985-60.6,34.405-6.082,26.667,8.027,52.547,34.4,60.6,60.324,18.523,126.27,11.1,181.694-18.6,55-29.466,96.305-82.131,113.672-141.876,17.524-60.271,9.2-126.533-21.373-181.155S438.648,130.2,378.049,114.24c-79.976-21.019-165.785,2.3-225.229,59.352-18.628,17.879-19.337,51.916,0,69.625,19.994,18.391,49.788,19.075,69.625,0Z" transform="translate(-28.967 -51.144)" fill="#48c7ee"/>
      <circle id="Ellipse_8" data-name="Ellipse 8" cx="52.494" cy="52.494" r="52.494" transform="translate(163.88 465.21)" fill="#231f20"/>
    </g>
    <text id="Forgot_Your_Username_" data-name="Forgot Your Username ?" transform="translate(315 1198)" fill="#707070" font-size="38" font-family="ArialRoundedMTBold, Arial Rounded MT"><tspan x="0" y="0">Forgot Your Username ?</tspan></text>
    <circle id="Ellipse_9" data-name="Ellipse 9" cx="76.5" cy="76.5" r="76.5" transform="translate(249 1355)"/>
    <circle id="Ellipse_10" data-name="Ellipse 10" cx="76.5" cy="76.5" r="76.5" transform="translate(678 1355)" fill="#fff"/>
    <text id="Sign_Up" data-name="Sign 
Up" transform="translate(326 1421)" fill="#fffdfd" font-size="54" font-family="ArialRoundedMTBold, Arial Rounded MT"><tspan x="-65.259" y="0">Sign </tspan><tspan x="-37.389" y="62">Up</tspan></text>
    <text id="login" transform="translate(755 1448)" font-size="54" font-family="ArialRoundedMTBold, Arial Rounded MT"><tspan x="-64.125" y="0">login</tspan></text>
  </g>
</svg>
