<svg id="Layer_1" data-name="Layer 1" xmlns="http://www.w3.org/2000/svg" viewBox="0 0 443.13 443.13"><defs><style>.cls-1{fill:#fff;}.cls-2{fill:#f9ed32;}.cls-3{fill:#231f20;}.cls-4{fill:#48c7ee;}</style></defs><title>logo 5</title><circle class="cls-1" cx="221.57" cy="221.57" r="221.57"/><circle class="cls-2" cx="220.57" cy="220.62" r="178.66"/><path class="cls-3" d="M237,239.79c2.63-2.52,5.36-4.9,8.22-7.17l-7.59,5.87a107.44,107.44,0,0,1,22.66-13.37l-9,3.78a106.94,106.94,0,0,1,27-7.35l-10,1.34a106.67,106.67,0,0,1,25.38,0l-10-1.34a107.62,107.62,0,0,1,26.89,7.22l-9-3.78A105.78,105.78,0,0,1,324,238l-7.59-5.86a106.15,106.15,0,0,1,17.92,17.78l-5.87-7.59A106.86,106.86,0,0,1,341.88,265L338.1,256a106.2,106.2,0,0,1,7.35,26.75l-1.34-10a105.55,105.55,0,0,1-.11,27l1.34-10a107.52,107.52,0,0,1-7.06,25.62l3.78-9a105.78,105.78,0,0,1-13,22.37l5.87-7.59a106.58,106.58,0,0,1-17.79,17.92l7.59-5.87a106.61,106.61,0,0,1-22.65,13.41l9-3.78a106.16,106.16,0,0,1-26.76,7.35l10-1.34a105.55,105.55,0,0,1-27-.11l10,1.34a111.78,111.78,0,0,1-16.36-3.67c-18.76-5.73-41.72,6.81-46.13,26.19-4.62,20.27,6.1,40,26.19,46.13,35.67,10.87,74.64,6.29,107.32-11.37,32-17.28,55.87-48,66.18-82.7C425,289.23,420,250,402,217.67c-17.86-32-49.33-56.27-84.71-65.77-47.38-12.73-98.07,1.14-133.36,34.85-14.21,13.58-14.69,39.55,0,53,15.25,14,37.87,14.48,53,0Z" transform="translate(-55.14 -64.39)"/><path class="cls-4" d="M202.45,210.63q5.61-5.38,11.72-10.19l-7.59,5.86a148.68,148.68,0,0,1,31.92-18.74l-9,3.78a148,148,0,0,1,35.82-9.91l-10,1.34a146.75,146.75,0,0,1,37.92-.15l-10-1.34a149.21,149.21,0,0,1,37.28,10.18l-9-3.78a146.81,146.81,0,0,1,30.86,18l-7.59-5.86a146.86,146.86,0,0,1,25.62,25.5l-5.87-7.59a147.68,147.68,0,0,1,18.76,32.07l-3.78-9a146.85,146.85,0,0,1,9.85,36l-1.33-10a146.14,146.14,0,0,1,0,38.07l1.34-10a148.25,148.25,0,0,1-10.1,36.68l3.78-8.95a147,147,0,0,1-18,30.85l5.87-7.59a146.92,146.92,0,0,1-25.51,25.62l7.59-5.87a147.68,147.68,0,0,1-32.07,18.76l9-3.78a147.24,147.24,0,0,1-36,9.86l10-1.34a146.21,146.21,0,0,1-38.08,0l10,1.34a151.61,151.61,0,0,1-23.36-5.21c-18.76-5.76-41.73,6.84-46.13,26.19-4.63,20.3,6.11,40,26.19,46.13,45.92,14.1,96.12,8.45,138.31-14.16,41.87-22.43,73.31-62.52,86.53-108,13.34-45.88,7-96.32-16.27-137.9S367,124.57,320.87,112.42c-60.88-16-126.2,1.75-171.45,45.18-14.18,13.61-14.72,39.52,0,53,15.22,14,37.9,14.52,53,0Z" transform="translate(-55.14 -64.39)"/><circle class="cls-3" cx="164.71" cy="394.09" r="39.96"/></svg>