<svg id="Layer_1" data-name="Layer 1" xmlns="http://www.w3.org/2000/svg" xmlns:xlink="http://www.w3.org/1999/xlink" viewBox="0 0 289.2 233.48"><defs><style>.cls-1{fill:none;}.cls-2{fill:#603813;}.cls-3{fill:#c5b097;}.cls-4{fill:#8a6239;}.cls-5{fill:#c49a6d;}.cls-6{clip-path:url(#clip-path);}.cls-7{fill:#fff;}.cls-8{fill:#f9ed32;}.cls-9{fill:#231f20;}.cls-10{fill:#48c7ee;}</style><clipPath id="clip-path" transform="translate(-861 -1052.52)"><rect class="cls-1" x="1014.02" y="1084.18" width="58.11" height="58.11" transform="translate(-481.67 1063.62) rotate(-45)"/></clipPath></defs><title>hammer</title><rect class="cls-2" x="0.71" y="192.75" width="232.43" height="40.01" rx="11.67" ry="11.67"/><path d="M1082.47,1286H873.38A12.4,12.4,0,0,1,861,1273.62V1257a12.4,12.4,0,0,1,12.38-12.39h209.09a12.41,12.41,0,0,1,12.39,12.39v16.67A12.4,12.4,0,0,1,1082.47,1286Zm-209.09-40a11,11,0,0,0-11,11v16.67a11,11,0,0,0,11,11h209.09a11,11,0,0,0,11-11V1257a11,11,0,0,0-11-11Z" transform="translate(-861 -1052.52)"/><rect class="cls-3" x="10.95" y="186.08" width="211.95" height="7.14" rx="3.57" ry="3.57"/><path d="M1080.33,1246.47H875.53a4.29,4.29,0,0,1,0-8.58h204.8a4.29,4.29,0,0,1,0,8.58Zm-204.8-7.15a2.86,2.86,0,0,0,0,5.72h204.8a2.86,2.86,0,0,0,0-5.72Z" transform="translate(-861 -1052.52)"/><rect class="cls-3" x="20.72" y="202.99" width="192.42" height="20" rx="4.8" ry="4.8"/><rect class="cls-4" x="980.61" y="1085.44" width="124.31" height="57.9" rx="11.91" ry="11.91" transform="translate(-1343.57 11.22) rotate(-45)"/><path d="M1019.29,1176.24a14.15,14.15,0,0,1-10.1-4.17L985.08,1148a14.32,14.32,0,0,1,0-20.2l71.07-71.07a14.3,14.3,0,0,1,20.2,0l24.1,24.1a14.33,14.33,0,0,1,0,20.21l-71.06,71.06A14.19,14.19,0,0,1,1019.29,1176.24Zm47-118.94a9.44,9.44,0,0,0-6.73,2.77l-71.07,71.07a9.56,9.56,0,0,0,0,13.46l24.1,24.11a9.57,9.57,0,0,0,13.47,0l71.07-71.07a9.57,9.57,0,0,0,0-13.47l-24.11-24.1A9.43,9.43,0,0,0,1066.25,1057.3Z" transform="translate(-861 -1052.52)"/><path d="M1033.15,1134.92h65.35a.86.86,0,0,1,.86.86v1a2.91,2.91,0,0,1-2.91,2.91H1035.2a2.91,2.91,0,0,1-2.91-2.91v-1a.86.86,0,0,1,.86-.86Z" transform="translate(-1353.02 34.24) rotate(-45)"/><path d="M1043.8,1162.21a3.6,3.6,0,0,1-2.56-1.06l-.71-.71a1.58,1.58,0,0,1,0-2.22l46.21-46.21a1.61,1.61,0,0,1,2.23,0l.7.7a3.62,3.62,0,0,1,0,5.12l-43.31,43.32A3.6,3.6,0,0,1,1043.8,1162.21Zm44.06-49.23a.14.14,0,0,0-.11,0l-46.21,46.21a.15.15,0,0,0,0,.2l.71.71a2.18,2.18,0,0,0,1.55.64,2.21,2.21,0,0,0,1.55-.64l43.31-43.32a2.15,2.15,0,0,0,.65-1.55,2.18,2.18,0,0,0-.65-1.55l-.7-.7A.13.13,0,0,0,1087.86,1113Z" transform="translate(-861 -1052.52)"/><path class="cls-4" d="M1096.17,1123h20a0,0,0,0,1,0,0v99.54a10,10,0,0,1-10,10h0a10,10,0,0,1-10-10V1123A0,0,0,0,1,1096.17,1123Z" transform="translate(-1369.83 74.62) rotate(-45)"/><path d="M1137.83,1221.82a12.34,12.34,0,0,1-8.76-3.62L1057,1146.13l17.51-17.51,72.07,72.07a12.38,12.38,0,0,1-8.75,21.13Zm-74.1-75.69,68.71,68.71a7.62,7.62,0,0,0,10.78-10.78l-68.71-68.71Z" transform="translate(-861 -1052.52)"/><rect class="cls-5" x="1017.81" y="1087.32" width="50.01" height="54.22" transform="translate(-1343.59 11.26) rotate(-45)"/><path d="M1044.3,1152.29,1005,1112.94l36.37-36.37,39.35,39.35ZM1007,1112.94l37.33,37.33,34.35-34.35-37.33-37.33Z" transform="translate(-861 -1052.52)"/><path d="M1050.68,1155.15l34.81-34.82c.4-.4,1.28.13,1.3.79.07,2.9,1.15,7.61,7.44,7.57.65,0,1.21.89.8,1.3l-34.58,34.58c-.42.42-1.33-.17-1.3-.83.16-3-.72-7.52-7.64-7.3C1050.84,1156.46,1050.26,1155.56,1050.68,1155.15Z" transform="translate(-861 -1052.52)"/><path d="M1060.09,1165.43a1.54,1.54,0,0,1-.61-.14,1.7,1.7,0,0,1-1-1.59,6.52,6.52,0,0,0-1.46-4.91c-1.14-1.16-3-1.72-5.45-1.64a1.71,1.71,0,0,1-1.58-1.06,1.29,1.29,0,0,1,.22-1.45l34.82-34.81a1.26,1.26,0,0,1,1.41-.24,1.73,1.73,0,0,1,1.1,1.51c.08,3.14,1.3,6.88,6.67,6.88h.06a1.71,1.71,0,0,1,1.53,1.08,1.28,1.28,0,0,1-.22,1.43L1061,1165.08A1.19,1.19,0,0,1,1060.09,1165.43Zm-8.1-9.71c2.64,0,4.66.7,6,2.08a7.66,7.66,0,0,1,1.86,6,.4.4,0,0,0,.18.19l34.39-34.39c0-.08-.14-.17-.2-.17h-.06c-5,0-8-3-8.1-8.28,0-.06-.09-.15-.17-.2l-34.62,34.63a.37.37,0,0,0,.21.17Z" transform="translate(-861 -1052.52)"/><rect x="1109.98" y="1145.91" width="5.72" height="76.68" rx="2.86" ry="2.86" transform="translate(-1372.45 81.23) rotate(-45)"/><path d="M1137.93,1212.91a3.57,3.57,0,0,1-2.53-1l-50.18-50.18a3.58,3.58,0,0,1,0-5,3.56,3.56,0,0,1,5,0l50.19,50.18a3.57,3.57,0,0,1-2.53,6.09ZM1087.75,1157a2.12,2.12,0,0,0-1.52.63,2.15,2.15,0,0,0,0,3l50.18,50.18a2.15,2.15,0,0,0,3-3l-50.19-50.18A2.09,2.09,0,0,0,1087.75,1157Z" transform="translate(-861 -1052.52)"/><g class="cls-6"><g class="cls-6"><path class="cls-7" d="M1058.82,1097.85a22.71,22.71,0,1,1-32.12,0,22.7,22.7,0,0,1,32.12,0" transform="translate(-861 -1052.52)"/><path class="cls-8" d="M1029.67,1126.86a18.31,18.31,0,1,1,25.9,0,18.32,18.32,0,0,1-25.9,0" transform="translate(-861 -1052.52)"/><path class="cls-9" d="M1036.53,1113.44c0-.37,0-.74.08-1.12l-.12,1a10.66,10.66,0,0,1,.67-2.61l-.38.92a11,11,0,0,1,1.43-2.49l-.63.82a11,11,0,0,1,1.84-1.84l-.82.63a11.27,11.27,0,0,1,2.47-1.43l-.92.38a10.88,10.88,0,0,1,2.56-.68l-1,.13a10.69,10.69,0,0,1,2.59,0l-1-.13a11.13,11.13,0,0,1,2.61.67l-.92-.37a10.93,10.93,0,0,1,2.47,1.4l-.82-.62a10.34,10.34,0,0,1,2,2c-.21-.27-.42-.54-.62-.82a11.55,11.55,0,0,1,1.34,2.37c-.12-.31-.25-.62-.37-.92a10.73,10.73,0,0,1,.67,2.56l-.12-1a11.13,11.13,0,0,1,0,2.58l.12-1a10.66,10.66,0,0,1-.67,2.61c.13-.3.25-.61.38-.92A10.81,10.81,0,0,1,1048,1118l.63-.82a10.39,10.39,0,0,1-2,2l.82-.62a11.39,11.39,0,0,1-1.45.91,3.85,3.85,0,0,0,3.8,6.69,14.23,14.23,0,0,0-2.91-26.25,14.26,14.26,0,0,0-10.9,1.37,14.43,14.43,0,0,0-7.14,12.19,3.87,3.87,0,0,0,3.84,3.84,3.91,3.91,0,0,0,3.84-3.84" transform="translate(-861 -1052.52)"/><path class="cls-10" d="M1031.92,1113.83c0-.53,0-1.06.11-1.59l-.12,1a15.14,15.14,0,0,1,.95-3.67l-.37.93a15.07,15.07,0,0,1,1.87-3.32l-.62.82a14.86,14.86,0,0,1,2.73-2.76l-.81.63a15.19,15.19,0,0,1,3.43-2l-.92.38a14.56,14.56,0,0,1,3.54-.93l-1,.12a15.27,15.27,0,0,1,3.7,0l-1-.12a15.59,15.59,0,0,1,3.68,1l-.92-.37a15.38,15.38,0,0,1,3.32,1.89l-.82-.62a14.72,14.72,0,0,1,2.76,2.76l-.63-.82a15.15,15.15,0,0,1,1.93,3.39l-.37-.93a15.53,15.53,0,0,1,.93,3.54c0-.32-.09-.65-.13-1a14.78,14.78,0,0,1,0,3.7c0-.32.08-.65.13-1a15,15,0,0,1-1,3.68l.38-.92a15.18,15.18,0,0,1-1.9,3.32l.63-.82a15,15,0,0,1-2.76,2.76l.82-.62a16,16,0,0,1-2.07,1.31,3.88,3.88,0,0,0-1.45,5.24,3.92,3.92,0,0,0,5.24,1.45,18.4,18.4,0,1,0-27-16.44,3.85,3.85,0,0,0,7.69,0" transform="translate(-861 -1052.52)"/><path class="cls-9" d="M1054.77,1128.63a4.1,4.1,0,1,1-5.53-1.73,4.09,4.09,0,0,1,5.53,1.73" transform="translate(-861 -1052.52)"/></g></g></svg>