<svg id="Layer_1" data-name="Layer 1" xmlns="http://www.w3.org/2000/svg" xmlns:xlink="http://www.w3.org/1999/xlink" viewBox="0 0 576.5 455.39"><defs><style>.cls-1,.cls-6,.cls-8{fill:none;}.cls-2{fill:#8a6239;}.cls-14,.cls-2,.cls-3,.cls-4,.cls-5,.cls-6,.cls-7,.cls-8{stroke:#000;stroke-miterlimit:10;}.cls-2,.cls-3,.cls-4,.cls-5,.cls-6,.cls-7{stroke-width:3px;}.cls-3{fill:#603813;}.cls-4{fill:#a47c52;}.cls-14,.cls-5{fill:#754c24;}.cls-7{fill:#4d4d4d;}.cls-9{clip-path:url(#clip-path);}.cls-10{fill:#fff;}.cls-11{fill:#f9ed32;}.cls-12{fill:#231f20;}.cls-13{fill:#48c7ee;}</style><clipPath id="clip-path" transform="translate(-792.5 -715.61)"><rect class="cls-1" x="1045" y="852" width="71" height="71"/></clipPath></defs><title>scaless</title><path class="cls-2" d="M135.62,426.89H440.46A23.55,23.55,0,0,1,464,450.44v0a3.45,3.45,0,0,1-3.45,3.45H115.51a3.45,3.45,0,0,1-3.45-3.45v0a23.55,23.55,0,0,1,23.55-23.55Z"/><path class="cls-3" d="M157.25,402.82H418.83a16.7,16.7,0,0,1,16.7,16.7v0a7.36,7.36,0,0,1-7.36,7.36H147.91a7.36,7.36,0,0,1-7.36-7.36v0a16.7,16.7,0,0,1,16.7-16.7Z"/><path class="cls-2" d="M166.5,385.94H409.58a11.82,11.82,0,0,1,11.82,11.82v0a5.06,5.06,0,0,1-5.06,5.06H159.75a5.06,5.06,0,0,1-5.06-5.06v0A11.82,11.82,0,0,1,166.5,385.94Z"/><rect class="cls-3" x="49.4" y="14.58" width="477.28" height="36.71" rx="18.36" ry="18.36"/><path class="cls-4" d="M288,1.5h0a27.85,27.85,0,0,1,27.85,27.85v316a3,3,0,0,1-3,3H263.21a3,3,0,0,1-3-3v-316A27.85,27.85,0,0,1,288,1.5Z"/><rect class="cls-5" x="234.15" y="142.89" width="107.85" height="58" rx="29" ry="29"/><circle cx="288.04" cy="32.73" r="20.68"/><rect class="cls-5" x="253.22" y="141.6" width="69.63" height="60.56" rx="5.47" ry="5.47"/><polygon class="cls-6" points="70.71 298.59 134.22 298.59 102.46 165.97 70.71 33.36 38.95 165.97 7.2 298.59 70.71 298.59"/><path class="cls-2" d="M214,347.12H362.1a33.76,33.76,0,0,1,33.76,33.76v0a5.06,5.06,0,0,1-5.06,5.06H185.28a5.06,5.06,0,0,1-5.06-5.06v0A33.76,33.76,0,0,1,214,347.12Z"/><polygon class="cls-6" points="505.37 298.17 568.88 298.17 537.13 165.55 505.37 32.94 473.61 165.55 441.86 298.17 505.37 298.17"/><path class="cls-7" d="M932.84,1014.3c0,36.65-31.08,66.37-69.42,66.37S794,1051,794,1014.3Z" transform="translate(-792.5 -715.61)"/><path class="cls-7" d="M1367.5,1013.78c0,36.65-31.08,66.37-69.42,66.37s-69.42-29.72-69.42-66.37Z" transform="translate(-792.5 -715.61)"/><circle cx="70.92" cy="33.36" r="10.13"/><circle cx="505.58" cy="32.94" r="10.13"/><path class="cls-8" d="M1212.84,781.89" transform="translate(-792.5 -715.61)"/><g class="cls-9"><g class="cls-9"><path class="cls-10" d="M1107.4,887.81a27.75,27.75,0,1,1-27.75-27.75,27.74,27.74,0,0,1,27.75,27.75" transform="translate(-792.5 -715.61)"/><path class="cls-11" d="M1057.15,887.69a22.38,22.38,0,1,1,22.38,22.38,22.38,22.38,0,0,1-22.38-22.38" transform="translate(-792.5 -715.61)"/><path class="cls-12" d="M1074.68,882c.33-.32.67-.61,1-.9l-1,.74a13.79,13.79,0,0,1,2.84-1.68l-1.12.48a12.84,12.84,0,0,1,3.38-.92l-1.25.16a14.09,14.09,0,0,1,3.18,0l-1.25-.17a13.56,13.56,0,0,1,3.37.91l-1.12-.47a13.29,13.29,0,0,1,2.8,1.63l-.95-.74a13.9,13.9,0,0,1,2.24,2.23l-.73-.95a14,14,0,0,1,1.68,2.84l-.48-1.13a13.09,13.09,0,0,1,.92,3.36c0-.42-.11-.84-.17-1.25a12.75,12.75,0,0,1,0,3.38c.06-.42.11-.83.17-1.25a13.44,13.44,0,0,1-.89,3.21l.48-1.13a13.12,13.12,0,0,1-1.63,2.81l.73-1a13.13,13.13,0,0,1-2.23,2.24l1-.73a13.42,13.42,0,0,1-2.83,1.67L1084,895a13.43,13.43,0,0,1-3.35.92l1.25-.17a13.18,13.18,0,0,1-3.38,0l1.25.17a14.15,14.15,0,0,1-2-.46,4.69,4.69,0,1,0-2.5,9.05,17.39,17.39,0,1,0-7.14-29.06,4.74,4.74,0,0,0,0,6.64,4.81,4.81,0,0,0,6.65,0" transform="translate(-792.5 -715.61)"/><path class="cls-13" d="M1070.35,878.38c.47-.45,1-.88,1.47-1.28l-1,.74a18.26,18.26,0,0,1,4-2.35l-1.12.47a18.86,18.86,0,0,1,4.48-1.24l-1.25.17a18.42,18.42,0,0,1,4.75,0l-1.25-.17a18.38,18.38,0,0,1,4.67,1.28l-1.12-.48a18.74,18.74,0,0,1,3.87,2.26l-1-.74a18,18,0,0,1,3.21,3.2l-.73-1a18.56,18.56,0,0,1,2.35,4l-.48-1.12a18.19,18.19,0,0,1,1.24,4.51c-.06-.42-.11-.83-.17-1.25a18.14,18.14,0,0,1,0,4.77c.06-.42.11-.83.17-1.25a18.3,18.3,0,0,1-1.27,4.59l.48-1.12a18.74,18.74,0,0,1-2.26,3.87c.25-.32.49-.64.74-.95a18.29,18.29,0,0,1-3.2,3.2l1-.73a18.33,18.33,0,0,1-4,2.35l1.12-.48a18.07,18.07,0,0,1-4.51,1.24l1.25-.17a18.14,18.14,0,0,1-4.77,0l1.25.17a19.53,19.53,0,0,1-2.92-.65,4.69,4.69,0,1,0-2.5,9,22.48,22.48,0,1,0-9.17-37.57,4.7,4.7,0,0,0,6.64,6.64" transform="translate(-792.5 -715.61)"/><path class="cls-12" d="M1077.31,910.91a5,5,0,1,1-3.28-6.27,5,5,0,0,1,3.28,6.27" transform="translate(-792.5 -715.61)"/></g></g><rect class="cls-14" x="265.5" y="209.89" width="45" height="6" rx="3" ry="3"/><rect class="cls-14" x="266" y="219.89" width="45" height="6" rx="3" ry="3"/><rect class="cls-14" x="266" y="230.89" width="45" height="6" rx="3" ry="3"/><rect class="cls-14" x="266" y="241.89" width="45" height="6" rx="3" ry="3"/><rect class="cls-14" x="265.5" y="97.89" width="45" height="6" rx="3" ry="3"/><rect class="cls-14" x="266" y="107.89" width="45" height="6" rx="3" ry="3"/><rect class="cls-14" x="266" y="118.89" width="45" height="6" rx="3" ry="3"/><rect class="cls-14" x="266" y="129.89" width="45" height="6" rx="3" ry="3"/></svg>